<mxfile host="app.diagrams.net" modified="2023-05-09T14:05:58.286Z" agent="Mozilla/5.0 (Windows NT 10.0; Win64; x64) AppleWebKit/537.36 (KHTML, like Gecko) Chrome/112.0.0.0 Safari/537.36" etag="ZPO461asbJ5EKV3uKrTW" version="21.2.9" type="device">
  <diagram name="Σελίδα-1" id="VW0SLgUWcSK5tM-JTZAy">
    <mxGraphModel dx="2893" dy="676" grid="1" gridSize="10" guides="1" tooltips="1" connect="1" arrows="1" fold="1" page="1" pageScale="1" pageWidth="1169" pageHeight="1654" math="0" shadow="0">
      <root>
        <mxCell id="0" />
        <mxCell id="1" parent="0" />
        <mxCell id="ns0BqZ1f2f7aMNidRfz8-75" value="" style="html=1;points=[];perimeter=orthogonalPerimeter;outlineConnect=0;targetShapes=umlLifeline;portConstraint=eastwest;newEdgeStyle={&quot;edgeStyle&quot;:&quot;elbowEdgeStyle&quot;,&quot;elbow&quot;:&quot;vertical&quot;,&quot;curved&quot;:0,&quot;rounded&quot;:0};" vertex="1" parent="1">
          <mxGeometry x="420" y="358" width="10" height="162" as="geometry" />
        </mxCell>
        <mxCell id="ns0BqZ1f2f7aMNidRfz8-14" value="" style="shape=umlLifeline;perimeter=lifelinePerimeter;whiteSpace=wrap;html=1;container=1;dropTarget=0;collapsible=0;recursiveResize=0;outlineConnect=0;portConstraint=eastwest;newEdgeStyle={&quot;edgeStyle&quot;:&quot;elbowEdgeStyle&quot;,&quot;elbow&quot;:&quot;vertical&quot;,&quot;curved&quot;:0,&quot;rounded&quot;:0};participant=umlBoundary;" vertex="1" parent="1">
          <mxGeometry x="100" y="120" width="50" height="720" as="geometry" />
        </mxCell>
        <mxCell id="ns0BqZ1f2f7aMNidRfz8-16" value="" style="shape=umlLifeline;perimeter=lifelinePerimeter;whiteSpace=wrap;html=1;container=1;dropTarget=0;collapsible=0;recursiveResize=0;outlineConnect=0;portConstraint=eastwest;newEdgeStyle={&quot;edgeStyle&quot;:&quot;elbowEdgeStyle&quot;,&quot;elbow&quot;:&quot;vertical&quot;,&quot;curved&quot;:0,&quot;rounded&quot;:0};participant=umlEntity;" vertex="1" parent="1">
          <mxGeometry x="220" y="120" width="40" height="680" as="geometry" />
        </mxCell>
        <mxCell id="ns0BqZ1f2f7aMNidRfz8-17" value="" style="shape=umlLifeline;perimeter=lifelinePerimeter;whiteSpace=wrap;html=1;container=1;dropTarget=0;collapsible=0;recursiveResize=0;outlineConnect=0;portConstraint=eastwest;newEdgeStyle={&quot;edgeStyle&quot;:&quot;elbowEdgeStyle&quot;,&quot;elbow&quot;:&quot;vertical&quot;,&quot;curved&quot;:0,&quot;rounded&quot;:0};participant=umlBoundary;" vertex="1" parent="1">
          <mxGeometry x="310" y="120" width="50" height="710" as="geometry" />
        </mxCell>
        <mxCell id="ns0BqZ1f2f7aMNidRfz8-74" value="" style="html=1;points=[];perimeter=orthogonalPerimeter;outlineConnect=0;targetShapes=umlLifeline;portConstraint=eastwest;newEdgeStyle={&quot;edgeStyle&quot;:&quot;elbowEdgeStyle&quot;,&quot;elbow&quot;:&quot;vertical&quot;,&quot;curved&quot;:0,&quot;rounded&quot;:0};" vertex="1" parent="ns0BqZ1f2f7aMNidRfz8-17">
          <mxGeometry x="20" y="120" width="10" height="30" as="geometry" />
        </mxCell>
        <mxCell id="ns0BqZ1f2f7aMNidRfz8-18" value="" style="shape=umlLifeline;perimeter=lifelinePerimeter;whiteSpace=wrap;html=1;container=1;dropTarget=0;collapsible=0;recursiveResize=0;outlineConnect=0;portConstraint=eastwest;newEdgeStyle={&quot;edgeStyle&quot;:&quot;elbowEdgeStyle&quot;,&quot;elbow&quot;:&quot;vertical&quot;,&quot;curved&quot;:0,&quot;rounded&quot;:0};participant=umlBoundary;" vertex="1" parent="1">
          <mxGeometry x="400" y="120" width="50" height="690" as="geometry" />
        </mxCell>
        <mxCell id="ns0BqZ1f2f7aMNidRfz8-19" value="" style="shape=umlLifeline;perimeter=lifelinePerimeter;whiteSpace=wrap;html=1;container=1;dropTarget=0;collapsible=0;recursiveResize=0;outlineConnect=0;portConstraint=eastwest;newEdgeStyle={&quot;edgeStyle&quot;:&quot;elbowEdgeStyle&quot;,&quot;elbow&quot;:&quot;vertical&quot;,&quot;curved&quot;:0,&quot;rounded&quot;:0};participant=umlBoundary;" vertex="1" parent="1">
          <mxGeometry x="480" y="120" width="50" height="720" as="geometry" />
        </mxCell>
        <mxCell id="ns0BqZ1f2f7aMNidRfz8-20" value="" style="shape=umlLifeline;perimeter=lifelinePerimeter;whiteSpace=wrap;html=1;container=1;dropTarget=0;collapsible=0;recursiveResize=0;outlineConnect=0;portConstraint=eastwest;newEdgeStyle={&quot;edgeStyle&quot;:&quot;elbowEdgeStyle&quot;,&quot;elbow&quot;:&quot;vertical&quot;,&quot;curved&quot;:0,&quot;rounded&quot;:0};participant=umlBoundary;" vertex="1" parent="1">
          <mxGeometry x="580" y="120" width="50" height="710" as="geometry" />
        </mxCell>
        <mxCell id="ns0BqZ1f2f7aMNidRfz8-80" value="" style="html=1;points=[];perimeter=orthogonalPerimeter;outlineConnect=0;targetShapes=umlLifeline;portConstraint=eastwest;newEdgeStyle={&quot;edgeStyle&quot;:&quot;elbowEdgeStyle&quot;,&quot;elbow&quot;:&quot;vertical&quot;,&quot;curved&quot;:0,&quot;rounded&quot;:0};" vertex="1" parent="ns0BqZ1f2f7aMNidRfz8-20">
          <mxGeometry x="20" y="330" width="10" height="70" as="geometry" />
        </mxCell>
        <mxCell id="ns0BqZ1f2f7aMNidRfz8-21" value="" style="shape=umlLifeline;perimeter=lifelinePerimeter;whiteSpace=wrap;html=1;container=1;dropTarget=0;collapsible=0;recursiveResize=0;outlineConnect=0;portConstraint=eastwest;newEdgeStyle={&quot;edgeStyle&quot;:&quot;elbowEdgeStyle&quot;,&quot;elbow&quot;:&quot;vertical&quot;,&quot;curved&quot;:0,&quot;rounded&quot;:0};participant=umlEntity;" vertex="1" parent="1">
          <mxGeometry x="660" y="120" width="40" height="700" as="geometry" />
        </mxCell>
        <mxCell id="ns0BqZ1f2f7aMNidRfz8-76" value="" style="html=1;points=[];perimeter=orthogonalPerimeter;outlineConnect=0;targetShapes=umlLifeline;portConstraint=eastwest;newEdgeStyle={&quot;edgeStyle&quot;:&quot;elbowEdgeStyle&quot;,&quot;elbow&quot;:&quot;vertical&quot;,&quot;curved&quot;:0,&quot;rounded&quot;:0};" vertex="1" parent="ns0BqZ1f2f7aMNidRfz8-21">
          <mxGeometry x="15" y="275" width="10" height="185" as="geometry" />
        </mxCell>
        <mxCell id="ns0BqZ1f2f7aMNidRfz8-22" value="" style="shape=umlLifeline;perimeter=lifelinePerimeter;whiteSpace=wrap;html=1;container=1;dropTarget=0;collapsible=0;recursiveResize=0;outlineConnect=0;portConstraint=eastwest;newEdgeStyle={&quot;edgeStyle&quot;:&quot;elbowEdgeStyle&quot;,&quot;elbow&quot;:&quot;vertical&quot;,&quot;curved&quot;:0,&quot;rounded&quot;:0};participant=umlBoundary;" vertex="1" parent="1">
          <mxGeometry x="740" y="120" width="50" height="730" as="geometry" />
        </mxCell>
        <mxCell id="ns0BqZ1f2f7aMNidRfz8-78" value="" style="html=1;points=[];perimeter=orthogonalPerimeter;outlineConnect=0;targetShapes=umlLifeline;portConstraint=eastwest;newEdgeStyle={&quot;edgeStyle&quot;:&quot;elbowEdgeStyle&quot;,&quot;elbow&quot;:&quot;vertical&quot;,&quot;curved&quot;:0,&quot;rounded&quot;:0};" vertex="1" parent="ns0BqZ1f2f7aMNidRfz8-22">
          <mxGeometry x="25" y="500" width="10" height="20" as="geometry" />
        </mxCell>
        <mxCell id="ns0BqZ1f2f7aMNidRfz8-23" value="" style="shape=umlLifeline;perimeter=lifelinePerimeter;whiteSpace=wrap;html=1;container=1;dropTarget=0;collapsible=0;recursiveResize=0;outlineConnect=0;portConstraint=eastwest;newEdgeStyle={&quot;edgeStyle&quot;:&quot;elbowEdgeStyle&quot;,&quot;elbow&quot;:&quot;vertical&quot;,&quot;curved&quot;:0,&quot;rounded&quot;:0};participant=umlActor;" vertex="1" parent="1">
          <mxGeometry x="-10" y="120" width="20" height="680" as="geometry" />
        </mxCell>
        <mxCell id="ns0BqZ1f2f7aMNidRfz8-79" value="" style="html=1;points=[];perimeter=orthogonalPerimeter;outlineConnect=0;targetShapes=umlLifeline;portConstraint=eastwest;newEdgeStyle={&quot;edgeStyle&quot;:&quot;elbowEdgeStyle&quot;,&quot;elbow&quot;:&quot;vertical&quot;,&quot;curved&quot;:0,&quot;rounded&quot;:0};" vertex="1" parent="ns0BqZ1f2f7aMNidRfz8-23">
          <mxGeometry x="5" y="60" width="10" height="250" as="geometry" />
        </mxCell>
        <mxCell id="ns0BqZ1f2f7aMNidRfz8-24" value="payOrder()" style="endArrow=classic;html=1;rounded=0;" edge="1" parent="1" source="ns0BqZ1f2f7aMNidRfz8-23" target="ns0BqZ1f2f7aMNidRfz8-14">
          <mxGeometry width="50" height="50" relative="1" as="geometry">
            <mxPoint x="230" y="380" as="sourcePoint" />
            <mxPoint x="280" y="330" as="targetPoint" />
            <Array as="points">
              <mxPoint x="60" y="180" />
            </Array>
          </mxGeometry>
        </mxCell>
        <mxCell id="ns0BqZ1f2f7aMNidRfz8-26" value="σελ&lt;br&gt;πληρωμη&lt;br&gt;παραγγελίας" style="text;html=1;align=center;verticalAlign=middle;resizable=0;points=[];autosize=1;strokeColor=none;fillColor=none;" vertex="1" parent="1">
          <mxGeometry x="65" y="53" width="90" height="60" as="geometry" />
        </mxCell>
        <mxCell id="ns0BqZ1f2f7aMNidRfz8-27" value="λιστα υπολοιπο" style="text;html=1;align=center;verticalAlign=middle;resizable=0;points=[];autosize=1;strokeColor=none;fillColor=none;" vertex="1" parent="1">
          <mxGeometry x="185" y="68" width="110" height="30" as="geometry" />
        </mxCell>
        <mxCell id="ns0BqZ1f2f7aMNidRfz8-28" value="σελ ανανεωση&lt;br&gt;υπολ" style="text;html=1;align=center;verticalAlign=middle;resizable=0;points=[];autosize=1;strokeColor=none;fillColor=none;" vertex="1" parent="1">
          <mxGeometry x="280" y="73" width="100" height="40" as="geometry" />
        </mxCell>
        <mxCell id="ns0BqZ1f2f7aMNidRfz8-29" value="σελ κουπονια" style="text;html=1;align=center;verticalAlign=middle;resizable=0;points=[];autosize=1;strokeColor=none;fillColor=none;" vertex="1" parent="1">
          <mxGeometry x="370" y="78" width="100" height="30" as="geometry" />
        </mxCell>
        <mxCell id="ns0BqZ1f2f7aMNidRfz8-30" value="σελ απορριψης" style="text;html=1;align=center;verticalAlign=middle;resizable=0;points=[];autosize=1;strokeColor=none;fillColor=none;" vertex="1" parent="1">
          <mxGeometry x="560" y="73" width="100" height="30" as="geometry" />
        </mxCell>
        <mxCell id="ns0BqZ1f2f7aMNidRfz8-32" value="σελ εισαγωγη&lt;br&gt;κουπονιου" style="text;html=1;align=center;verticalAlign=middle;resizable=0;points=[];autosize=1;strokeColor=none;fillColor=none;" vertex="1" parent="1">
          <mxGeometry x="460" y="73" width="100" height="40" as="geometry" />
        </mxCell>
        <mxCell id="ns0BqZ1f2f7aMNidRfz8-33" value="κοστος&amp;nbsp;&lt;br&gt;παραγγελιας" style="text;html=1;align=center;verticalAlign=middle;resizable=0;points=[];autosize=1;strokeColor=none;fillColor=none;" vertex="1" parent="1">
          <mxGeometry x="635" y="73" width="90" height="40" as="geometry" />
        </mxCell>
        <mxCell id="ns0BqZ1f2f7aMNidRfz8-35" value="σελ&lt;br&gt;υπολοιπο χρηστη" style="text;html=1;align=center;verticalAlign=middle;resizable=0;points=[];autosize=1;strokeColor=none;fillColor=none;" vertex="1" parent="1">
          <mxGeometry x="710" y="73" width="120" height="40" as="geometry" />
        </mxCell>
        <mxCell id="ns0BqZ1f2f7aMNidRfz8-36" value="σελ επιτυχης&lt;br&gt;πληρωμη" style="text;html=1;align=center;verticalAlign=middle;resizable=0;points=[];autosize=1;strokeColor=none;fillColor=none;" vertex="1" parent="1">
          <mxGeometry x="825" y="63" width="90" height="40" as="geometry" />
        </mxCell>
        <mxCell id="ns0BqZ1f2f7aMNidRfz8-37" value="" style="shape=umlLifeline;perimeter=lifelinePerimeter;whiteSpace=wrap;html=1;container=1;dropTarget=0;collapsible=0;recursiveResize=0;outlineConnect=0;portConstraint=eastwest;newEdgeStyle={&quot;edgeStyle&quot;:&quot;elbowEdgeStyle&quot;,&quot;elbow&quot;:&quot;vertical&quot;,&quot;curved&quot;:0,&quot;rounded&quot;:0};participant=umlBoundary;" vertex="1" parent="1">
          <mxGeometry x="845" y="120" width="50" height="720" as="geometry" />
        </mxCell>
        <mxCell id="ns0BqZ1f2f7aMNidRfz8-77" value="" style="html=1;points=[];perimeter=orthogonalPerimeter;outlineConnect=0;targetShapes=umlLifeline;portConstraint=eastwest;newEdgeStyle={&quot;edgeStyle&quot;:&quot;elbowEdgeStyle&quot;,&quot;elbow&quot;:&quot;vertical&quot;,&quot;curved&quot;:0,&quot;rounded&quot;:0};" vertex="1" parent="ns0BqZ1f2f7aMNidRfz8-37">
          <mxGeometry x="20" y="520" width="10" height="70" as="geometry" />
        </mxCell>
        <mxCell id="ns0BqZ1f2f7aMNidRfz8-38" value="checkBalance()" style="endArrow=classic;html=1;rounded=0;" edge="1" parent="1" source="ns0BqZ1f2f7aMNidRfz8-71" target="ns0BqZ1f2f7aMNidRfz8-16">
          <mxGeometry width="50" height="50" relative="1" as="geometry">
            <mxPoint x="220" y="280" as="sourcePoint" />
            <mxPoint x="270" y="230" as="targetPoint" />
            <Array as="points">
              <mxPoint x="180" y="210" />
            </Array>
          </mxGeometry>
        </mxCell>
        <mxCell id="ns0BqZ1f2f7aMNidRfz8-39" value="balance&amp;nbsp;&lt;br&gt;enough?" style="shape=umlFrame;whiteSpace=wrap;html=1;pointerEvents=0;" vertex="1" parent="1">
          <mxGeometry x="230" y="170" width="180" height="250" as="geometry" />
        </mxCell>
        <mxCell id="ns0BqZ1f2f7aMNidRfz8-40" value="no" style="text;html=1;align=center;verticalAlign=middle;resizable=0;points=[];autosize=1;strokeColor=none;fillColor=none;" vertex="1" parent="1">
          <mxGeometry x="260" y="198" width="40" height="30" as="geometry" />
        </mxCell>
        <mxCell id="ns0BqZ1f2f7aMNidRfz8-41" value="show()" style="endArrow=classic;html=1;rounded=0;" edge="1" parent="1" source="ns0BqZ1f2f7aMNidRfz8-16" target="ns0BqZ1f2f7aMNidRfz8-17">
          <mxGeometry width="50" height="50" relative="1" as="geometry">
            <mxPoint x="240" y="240" as="sourcePoint" />
            <mxPoint x="270" y="220" as="targetPoint" />
            <Array as="points">
              <mxPoint x="280" y="240" />
              <mxPoint x="300" y="240" />
            </Array>
          </mxGeometry>
        </mxCell>
        <mxCell id="ns0BqZ1f2f7aMNidRfz8-42" value="update()" style="endArrow=classic;html=1;rounded=0;dashed=1;" edge="1" parent="1" source="ns0BqZ1f2f7aMNidRfz8-17" target="ns0BqZ1f2f7aMNidRfz8-16">
          <mxGeometry x="0.1479" y="-10" width="50" height="50" relative="1" as="geometry">
            <mxPoint x="220" y="270" as="sourcePoint" />
            <mxPoint x="270" y="220" as="targetPoint" />
            <Array as="points">
              <mxPoint x="310" y="270" />
            </Array>
            <mxPoint as="offset" />
          </mxGeometry>
        </mxCell>
        <mxCell id="ns0BqZ1f2f7aMNidRfz8-43" value="choseAmount()" style="endArrow=classic;html=1;rounded=0;" edge="1" parent="1" source="ns0BqZ1f2f7aMNidRfz8-23" target="ns0BqZ1f2f7aMNidRfz8-17">
          <mxGeometry x="-0.4599" y="10" width="50" height="50" relative="1" as="geometry">
            <mxPoint x="220" y="270" as="sourcePoint" />
            <mxPoint x="270" y="220" as="targetPoint" />
            <Array as="points">
              <mxPoint x="220" y="250" />
            </Array>
            <mxPoint as="offset" />
          </mxGeometry>
        </mxCell>
        <mxCell id="ns0BqZ1f2f7aMNidRfz8-44" value="show()" style="endArrow=classic;html=1;rounded=0;dashed=1;" edge="1" parent="1" source="ns0BqZ1f2f7aMNidRfz8-16" target="ns0BqZ1f2f7aMNidRfz8-14">
          <mxGeometry width="50" height="50" relative="1" as="geometry">
            <mxPoint x="220" y="270" as="sourcePoint" />
            <mxPoint x="270" y="220" as="targetPoint" />
            <Array as="points">
              <mxPoint x="220" y="300" />
            </Array>
          </mxGeometry>
        </mxCell>
        <mxCell id="ns0BqZ1f2f7aMNidRfz8-45" value="" style="endArrow=none;dashed=1;html=1;rounded=0;exitX=0.013;exitY=0.574;exitDx=0;exitDy=0;exitPerimeter=0;entryX=1.012;entryY=0.568;entryDx=0;entryDy=0;entryPerimeter=0;" edge="1" parent="1" source="ns0BqZ1f2f7aMNidRfz8-39" target="ns0BqZ1f2f7aMNidRfz8-39">
          <mxGeometry width="50" height="50" relative="1" as="geometry">
            <mxPoint x="220" y="270" as="sourcePoint" />
            <mxPoint x="270" y="220" as="targetPoint" />
          </mxGeometry>
        </mxCell>
        <mxCell id="ns0BqZ1f2f7aMNidRfz8-46" value="yes" style="text;html=1;align=center;verticalAlign=middle;resizable=0;points=[];autosize=1;strokeColor=none;fillColor=none;" vertex="1" parent="1">
          <mxGeometry x="240" y="328" width="40" height="30" as="geometry" />
        </mxCell>
        <mxCell id="ns0BqZ1f2f7aMNidRfz8-47" value="show()" style="endArrow=classic;html=1;rounded=0;" edge="1" parent="1" source="ns0BqZ1f2f7aMNidRfz8-16" target="ns0BqZ1f2f7aMNidRfz8-18">
          <mxGeometry width="50" height="50" relative="1" as="geometry">
            <mxPoint x="220" y="270" as="sourcePoint" />
            <mxPoint x="270" y="220" as="targetPoint" />
            <Array as="points">
              <mxPoint x="300" y="360" />
            </Array>
          </mxGeometry>
        </mxCell>
        <mxCell id="ns0BqZ1f2f7aMNidRfz8-48" value="have coupon?" style="shape=umlFrame;whiteSpace=wrap;html=1;pointerEvents=0;" vertex="1" parent="1">
          <mxGeometry x="415" y="370" width="95" height="130" as="geometry" />
        </mxCell>
        <mxCell id="ns0BqZ1f2f7aMNidRfz8-49" value="yes" style="text;html=1;align=center;verticalAlign=middle;resizable=0;points=[];autosize=1;strokeColor=none;fillColor=none;" vertex="1" parent="1">
          <mxGeometry x="460" y="380" width="40" height="30" as="geometry" />
        </mxCell>
        <mxCell id="ns0BqZ1f2f7aMNidRfz8-50" value="no" style="text;html=1;align=center;verticalAlign=middle;resizable=0;points=[];autosize=1;strokeColor=none;fillColor=none;" vertex="1" parent="1">
          <mxGeometry x="420" y="445" width="40" height="30" as="geometry" />
        </mxCell>
        <mxCell id="ns0BqZ1f2f7aMNidRfz8-51" value="show()" style="endArrow=classic;html=1;rounded=0;" edge="1" parent="1" source="ns0BqZ1f2f7aMNidRfz8-18" target="ns0BqZ1f2f7aMNidRfz8-19">
          <mxGeometry x="-0.3633" y="10" width="50" height="50" relative="1" as="geometry">
            <mxPoint x="470" y="360" as="sourcePoint" />
            <mxPoint x="520" y="310" as="targetPoint" />
            <Array as="points">
              <mxPoint x="480" y="420" />
            </Array>
            <mxPoint as="offset" />
          </mxGeometry>
        </mxCell>
        <mxCell id="ns0BqZ1f2f7aMNidRfz8-53" value="" style="endArrow=none;dashed=1;html=1;rounded=0;entryX=-0.021;entryY=0.638;entryDx=0;entryDy=0;entryPerimeter=0;" edge="1" parent="1" target="ns0BqZ1f2f7aMNidRfz8-59">
          <mxGeometry width="50" height="50" relative="1" as="geometry">
            <mxPoint x="410" y="450" as="sourcePoint" />
            <mxPoint x="530" y="450" as="targetPoint" />
            <Array as="points">
              <mxPoint x="473" y="450" />
              <mxPoint x="510" y="450" />
            </Array>
          </mxGeometry>
        </mxCell>
        <mxCell id="ns0BqZ1f2f7aMNidRfz8-56" value="calculate()" style="endArrow=classic;html=1;rounded=0;" edge="1" parent="1" source="ns0BqZ1f2f7aMNidRfz8-18" target="ns0BqZ1f2f7aMNidRfz8-21">
          <mxGeometry width="50" height="50" relative="1" as="geometry">
            <mxPoint x="470" y="360" as="sourcePoint" />
            <mxPoint x="520" y="310" as="targetPoint" />
            <Array as="points">
              <mxPoint x="490" y="480" />
            </Array>
          </mxGeometry>
        </mxCell>
        <mxCell id="ns0BqZ1f2f7aMNidRfz8-57" value="enterCoupon()" style="endArrow=classic;html=1;rounded=0;" edge="1" parent="1" source="ns0BqZ1f2f7aMNidRfz8-23" target="ns0BqZ1f2f7aMNidRfz8-19">
          <mxGeometry x="-0.3249" y="10" width="50" height="50" relative="1" as="geometry">
            <mxPoint x="270" y="390" as="sourcePoint" />
            <mxPoint x="320" y="340" as="targetPoint" />
            <Array as="points">
              <mxPoint x="230" y="430" />
            </Array>
            <mxPoint as="offset" />
          </mxGeometry>
        </mxCell>
        <mxCell id="ns0BqZ1f2f7aMNidRfz8-59" value="correct?" style="shape=umlFrame;whiteSpace=wrap;html=1;pointerEvents=0;width=40;height=15;" vertex="1" parent="1">
          <mxGeometry x="510" y="375" width="100" height="85" as="geometry" />
        </mxCell>
        <mxCell id="ns0BqZ1f2f7aMNidRfz8-60" value="yes" style="text;html=1;align=center;verticalAlign=middle;resizable=0;points=[];autosize=1;strokeColor=none;fillColor=none;" vertex="1" parent="1">
          <mxGeometry x="550" y="370" width="40" height="30" as="geometry" />
        </mxCell>
        <mxCell id="ns0BqZ1f2f7aMNidRfz8-61" value="no" style="text;html=1;align=center;verticalAlign=middle;resizable=0;points=[];autosize=1;strokeColor=none;fillColor=none;" vertex="1" parent="1">
          <mxGeometry x="510" y="420" width="40" height="30" as="geometry" />
        </mxCell>
        <mxCell id="ns0BqZ1f2f7aMNidRfz8-62" value="show()" style="endArrow=classic;html=1;rounded=0;" edge="1" parent="1" source="ns0BqZ1f2f7aMNidRfz8-19" target="ns0BqZ1f2f7aMNidRfz8-20">
          <mxGeometry width="50" height="50" relative="1" as="geometry">
            <mxPoint x="420" y="390" as="sourcePoint" />
            <mxPoint x="470" y="340" as="targetPoint" />
            <Array as="points">
              <mxPoint x="550" y="450" />
              <mxPoint x="580" y="450" />
            </Array>
          </mxGeometry>
        </mxCell>
        <mxCell id="ns0BqZ1f2f7aMNidRfz8-64" value="show()" style="endArrow=classic;html=1;rounded=0;dashed=1;" edge="1" parent="1" source="ns0BqZ1f2f7aMNidRfz8-20" target="ns0BqZ1f2f7aMNidRfz8-18">
          <mxGeometry width="50" height="50" relative="1" as="geometry">
            <mxPoint x="420" y="390" as="sourcePoint" />
            <mxPoint x="460" y="330" as="targetPoint" />
            <Array as="points">
              <mxPoint x="550" y="520" />
            </Array>
          </mxGeometry>
        </mxCell>
        <mxCell id="ns0BqZ1f2f7aMNidRfz8-65" value="" style="endArrow=none;dashed=1;html=1;dashPattern=1 3;strokeWidth=2;rounded=0;exitX=-0.11;exitY=-0.175;exitDx=0;exitDy=0;exitPerimeter=0;" edge="1" parent="1" source="ns0BqZ1f2f7aMNidRfz8-61" target="ns0BqZ1f2f7aMNidRfz8-20">
          <mxGeometry width="50" height="50" relative="1" as="geometry">
            <mxPoint x="420" y="470" as="sourcePoint" />
            <mxPoint x="470" y="420" as="targetPoint" />
          </mxGeometry>
        </mxCell>
        <mxCell id="ns0BqZ1f2f7aMNidRfz8-66" value="calculate()" style="endArrow=classic;html=1;rounded=0;" edge="1" parent="1" source="ns0BqZ1f2f7aMNidRfz8-19" target="ns0BqZ1f2f7aMNidRfz8-21">
          <mxGeometry x="-0.3661" width="50" height="50" relative="1" as="geometry">
            <mxPoint x="420" y="370" as="sourcePoint" />
            <mxPoint x="470" y="320" as="targetPoint" />
            <Array as="points">
              <mxPoint x="630" y="400" />
            </Array>
            <mxPoint as="offset" />
          </mxGeometry>
        </mxCell>
        <mxCell id="ns0BqZ1f2f7aMNidRfz8-67" value="calculate()" style="endArrow=classic;html=1;rounded=0;dashed=1;" edge="1" parent="1" source="ns0BqZ1f2f7aMNidRfz8-21" target="ns0BqZ1f2f7aMNidRfz8-16">
          <mxGeometry width="50" height="50" relative="1" as="geometry">
            <mxPoint x="470" y="560" as="sourcePoint" />
            <mxPoint x="520" y="510" as="targetPoint" />
            <Array as="points">
              <mxPoint x="530" y="580" />
            </Array>
          </mxGeometry>
        </mxCell>
        <mxCell id="ns0BqZ1f2f7aMNidRfz8-68" value="show()" style="endArrow=classic;html=1;rounded=0;" edge="1" parent="1" source="ns0BqZ1f2f7aMNidRfz8-16" target="ns0BqZ1f2f7aMNidRfz8-22">
          <mxGeometry width="50" height="50" relative="1" as="geometry">
            <mxPoint x="310" y="560" as="sourcePoint" />
            <mxPoint x="360" y="510" as="targetPoint" />
            <Array as="points">
              <mxPoint x="580" y="620" />
              <mxPoint x="720" y="620" />
            </Array>
          </mxGeometry>
        </mxCell>
        <mxCell id="ns0BqZ1f2f7aMNidRfz8-70" value="show()" style="endArrow=classic;html=1;rounded=0;" edge="1" parent="1" source="ns0BqZ1f2f7aMNidRfz8-22" target="ns0BqZ1f2f7aMNidRfz8-37">
          <mxGeometry x="-0.1306" y="10" width="50" height="50" relative="1" as="geometry">
            <mxPoint x="500" y="470" as="sourcePoint" />
            <mxPoint x="550" y="420" as="targetPoint" />
            <Array as="points">
              <mxPoint x="830" y="640" />
            </Array>
            <mxPoint x="-1" as="offset" />
          </mxGeometry>
        </mxCell>
        <mxCell id="ns0BqZ1f2f7aMNidRfz8-72" value="" style="endArrow=classic;html=1;rounded=0;" edge="1" parent="1" source="ns0BqZ1f2f7aMNidRfz8-14" target="ns0BqZ1f2f7aMNidRfz8-71">
          <mxGeometry width="50" height="50" relative="1" as="geometry">
            <mxPoint x="124" y="210" as="sourcePoint" />
            <mxPoint x="240" y="210" as="targetPoint" />
            <Array as="points" />
          </mxGeometry>
        </mxCell>
        <mxCell id="ns0BqZ1f2f7aMNidRfz8-71" value="" style="html=1;points=[];perimeter=orthogonalPerimeter;outlineConnect=0;targetShapes=umlLifeline;portConstraint=eastwest;newEdgeStyle={&quot;edgeStyle&quot;:&quot;elbowEdgeStyle&quot;,&quot;elbow&quot;:&quot;vertical&quot;,&quot;curved&quot;:0,&quot;rounded&quot;:0};" vertex="1" parent="1">
          <mxGeometry x="120" y="180" width="10" height="120" as="geometry" />
        </mxCell>
        <mxCell id="ns0BqZ1f2f7aMNidRfz8-73" value="" style="html=1;points=[];perimeter=orthogonalPerimeter;outlineConnect=0;targetShapes=umlLifeline;portConstraint=eastwest;newEdgeStyle={&quot;edgeStyle&quot;:&quot;elbowEdgeStyle&quot;,&quot;elbow&quot;:&quot;vertical&quot;,&quot;curved&quot;:0,&quot;rounded&quot;:0};" vertex="1" parent="1">
          <mxGeometry x="235" y="210" width="10" height="410" as="geometry" />
        </mxCell>
      </root>
    </mxGraphModel>
  </diagram>
</mxfile>
